<?xml version="1.0" standalone="no"?>
<!DOCTYPE svg PUBLIC "-//W3C//DTD SVG 20010904//EN" "http://www.w3.org/TR/2001/REC-SVG-20010904/DTD/svg10.dtd">
<svg version="1.0" xmlns="http://www.w3.org/2000/svg"
	width="1080.000000pt" height="1080.000000pt" viewBox="0 0 1080.000000 1080.000000"
	preserveAspectRatio="xMidYMid meet">

	<g transform="translate(0.000000,1080.000000) scale(0.100000,-0.100000)"
		fill="#000000" stroke="none">
		<path
			d="M3883 7950 c-49 -11 -81 -36 -103 -80 -14 -28 -32 -44 -63 -58 -24
-11 -55 -35 -68 -53 l-24 -34 -3 -1530 c-2 -1021 1 -1542 7 -1565 12 -42 54
-84 96 -97 19 -6 39 -25 55 -53 14 -25 42 -54 61 -65 34 -20 45 -20 1559 -20
1521 0 1525 0 1560 21 19 11 45 38 57 60 14 25 38 48 69 64 26 14 57 38 68 53
l21 28 0 1554 0 1554 -21 28 c-11 15 -42 39 -67 53 -30 16 -54 37 -65 59 -21
43 -57 70 -108 81 -47 11 -2985 11 -3031 0z m3062 -48 c17 -10 36 -32 44 -48
7 -16 16 -35 20 -42 3 -8 23 -20 44 -27 51 -17 75 -41 87 -84 14 -49 14 -3003
0 -3052 -12 -44 -36 -67 -87 -84 -27 -9 -43 -23 -55 -47 -9 -20 -31 -47 -48
-62 l-32 -26 -1515 0 c-1705 0 -1551 -8 -1595 78 -18 33 -32 47 -61 57 -20 7
-45 19 -54 26 -44 37 -43 -5 -43 1583 0 845 4 1515 9 1528 14 36 60 77 95 83
26 5 36 15 53 53 41 90 -117 81 1593 82 1452 0 1516 -1 1545 -18z" />
		<path
			d="M3973 7849 c-25 -7 -33 -15 -33 -33 0 -29 15 -36 71 -30 81 9 89 13
89 38 0 13 -7 27 -16 30 -22 8 -73 6 -111 -5z" />
		<path
			d="M4146 7844 c-19 -19 -20 -26 -4 -42 12 -12 114 -17 142 -6 22 8 20
41 -3 54 -31 16 -117 12 -135 -6z" />
		<path
			d="M4339 7844 c-9 -11 -10 -20 -2 -32 15 -25 141 -24 157 1 9 15 7 21
-8 33 -28 20 -129 19 -147 -2z" />
		<path
			d="M4542 7851 c-8 -4 -12 -19 -10 -32 3 -22 8 -24 75 -27 63 -2 73 0 82
17 18 32 -11 51 -77 51 -31 0 -63 -4 -70 -9z" />
		<path
			d="M4742 7851 c-8 -4 -12 -19 -10 -32 3 -21 9 -24 57 -27 77 -4 101 3
101 32 0 16 -7 26 -22 30 -34 9 -111 7 -126 -3z" />
		<path
			d="M4936 7844 c-36 -35 -6 -56 75 -52 47 2 65 7 73 21 9 15 7 21 -8 33
-27 19 -120 19 -140 -2z" />
		<path
			d="M5132 7848 c-17 -17 -15 -45 4 -52 28 -11 130 -6 142 6 16 16 15 23
-4 42 -19 19 -124 22 -142 4z" />
		<path
			d="M5333 7853 c-18 -7 -16 -50 3 -57 9 -3 37 -6 64 -6 63 0 80 7 80 35
0 13 -7 26 -16 29 -18 7 -113 7 -131 -1z" />
		<path
			d="M5526 7844 c-12 -12 -13 -20 -6 -35 9 -16 22 -19 73 -19 65 0 87 11
87 41 0 22 -20 29 -85 29 -35 0 -59 -5 -69 -16z" />
		<path
			d="M5724 7846 c-15 -12 -17 -18 -8 -33 9 -14 24 -18 79 -18 55 0 70 4
79 18 17 27 -17 47 -79 47 -29 0 -60 -6 -71 -14z" />
		<path
			d="M5928 7849 c-22 -13 -23 -45 -2 -53 9 -3 42 -6 74 -6 48 0 61 4 70
19 16 31 -12 51 -73 51 -29 0 -60 -5 -69 -11z" />
		<path
			d="M6128 7853 c-23 -6 -24 -49 -2 -57 9 -3 37 -6 64 -6 63 0 80 7 80 35
0 13 -7 26 -16 29 -17 7 -99 6 -126 -1z" />
		<path
			d="M6316 7844 c-36 -35 -6 -56 75 -52 47 2 65 7 73 21 9 15 7 21 -8 33
-27 19 -120 19 -140 -2z" />
		<path
			d="M6514 7846 c-15 -12 -17 -18 -8 -33 8 -14 26 -19 73 -21 81 -4 111
17 75 52 -20 21 -113 21 -140 2z" />
		<path
			d="M6712 7848 c-20 -20 -14 -47 11 -53 12 -2 47 -6 77 -7 53 -3 55 -2
58 24 3 23 -2 28 -35 37 -50 14 -96 14 -111 -1z" />
		<path
			d="M6880 7775 c-10 -12 -10 -24 -1 -55 10 -34 17 -41 50 -50 21 -6 46
-7 55 -4 25 10 19 43 -10 56 -14 7 -32 25 -40 40 -16 31 -35 36 -54 13z" />
		<path
			d="M3869 7756 c-6 -13 -25 -30 -40 -37 -30 -12 -35 -24 -20 -48 6 -10
20 -11 51 -6 36 6 44 12 56 42 19 45 15 67 -14 71 -15 2 -25 -4 -33 -22z" />
		<path
			d="M4157 7683 c-14 -13 -6 -38 20 -65 18 -19 22 -28 12 -28 -8 0 -35 20
-59 45 -45 46 -80 58 -80 28 0 -9 10 -27 21 -39 20 -21 20 -24 5 -39 -25 -25
-20 -45 11 -45 l27 0 -32 -33 c-32 -33 -41 -61 -23 -71 16 -10 35 4 76 54 23
29 48 50 59 50 17 0 15 -5 -12 -33 -35 -36 -41 -64 -16 -74 11 -4 32 12 69 53
29 32 56 56 61 51 4 -4 -5 -20 -19 -35 -29 -30 -36 -72 -13 -72 8 0 36 25 63
55 l48 55 397 0 c227 0 399 4 402 9 4 5 3 16 0 25 -5 14 -49 16 -402 16 l-395
0 -54 51 c-44 41 -56 49 -68 39 -15 -13 -13 -20 21 -67 29 -40 0 -25 -51 27
-50 51 -57 55 -68 43z" />
		<path
			d="M5306 7666 c-15 -14 -26 -33 -26 -43 0 -32 37 -80 94 -123 66 -50 74
-49 156 27 69 64 79 102 36 142 -21 20 -32 22 -68 17 -52 -8 -61 -8 -120 0
-41 5 -50 3 -72 -20z" />
		<path
			d="M6525 7640 l-49 -50 -406 -2 c-397 -3 -405 -3 -405 -23 0 -20 8 -20
405 -25 l405 -5 49 -52 c50 -55 72 -64 83 -37 4 10 -8 30 -33 55 -23 23 -32
39 -24 39 8 0 38 -25 66 -57 36 -40 55 -55 67 -50 26 10 20 38 -15 74 -56 58
-7 36 53 -23 39 -38 63 -55 73 -51 25 10 19 31 -19 68 l-35 34 28 5 c33 6 35
30 5 46 l-23 11 30 26 c34 30 38 52 13 61 -12 5 -32 -8 -68 -44 -54 -53 -100
-72 -51 -21 28 29 32 61 8 69 -7 2 -34 -19 -59 -47 -25 -28 -53 -51 -62 -51
-10 0 -4 10 17 31 35 35 40 54 16 63 -9 3 -17 6 -18 6 -1 0 -24 -22 -51 -50z" />
		<path
			d="M3739 7644 c-20 -24 -25 -127 -6 -142 27 -23 43 -4 53 65 8 52 7 68
-4 79 -17 18 -27 18 -43 -2z" />
		<path d="M7021 7651 c-19 -12 -5 -147 16 -155 27 -11 43 14 43 63 0 70 -27
112 -59 92z" />
		<path
			d="M3737 7448 c-13 -7 -17 -23 -17 -72 0 -67 14 -92 44 -80 13 5 16 21
16 79 0 76 -9 92 -43 73z" />
		<path
			d="M7027 7453 c-4 -3 -7 -39 -7 -79 0 -57 3 -73 16 -78 31 -12 44 13 44
84 0 53 -4 69 -16 74 -20 8 -29 8 -37 -1z" />
		<path
			d="M7027 7253 c-4 -3 -7 -39 -7 -80 0 -78 13 -99 45 -73 22 18 21 146
-1 154 -20 8 -29 8 -37 -1z" />
		<path
			d="M3727 7243 c-14 -13 -7 -130 8 -143 32 -26 45 -5 45 75 0 72 -1 75
-23 75 -13 0 -27 -3 -30 -7z" />
		<path
			d="M5092 7053 c-18 -16 -57 -66 -86 -113 -48 -78 -56 -85 -92 -92 -21
-4 -78 -16 -126 -26 -49 -11 -88 -19 -88 -17 0 1 28 21 63 43 62 40 147 122
147 142 0 5 -11 17 -24 25 -32 22 -88 7 -148 -39 -65 -50 -148 -169 -148 -212
0 -14 -14 -26 -47 -41 -76 -34 -166 -87 -171 -101 -9 -27 28 -21 87 13 66 39
191 98 252 120 36 13 38 13 120 -43 99 -66 200 -111 249 -112 41 0 80 23 80
48 0 53 -85 123 -165 138 -66 11 -64 18 10 31 114 20 144 17 155 -12 5 -14 20
-40 32 -58 56 -81 104 -117 153 -117 62 0 10 109 -81 169 l-49 32 59 -3 c56
-3 60 -5 67 -31 12 -43 88 -164 121 -192 32 -27 91 -47 114 -38 39 15 -14 122
-102 202 l-57 52 74 -3 74 -3 6 -50 c8 -65 29 -113 69 -158 59 -68 122 -39
106 49 -5 25 -24 54 -59 91 l-51 54 45 -7 c24 -4 67 -12 94 -18 l50 -11 6 -71
c11 -118 65 -206 125 -206 34 0 64 34 64 72 0 29 -40 92 -98 152 l-36 38 30
-9 c104 -32 122 -43 133 -86 14 -56 84 -161 119 -179 23 -12 33 -12 53 -3 52
26 28 101 -52 161 -21 16 -37 31 -36 33 2 1 19 -2 38 -7 20 -6 61 -36 100 -74
52 -50 80 -68 124 -82 67 -21 88 -13 93 35 7 66 -57 113 -168 126 -49 6 -200
51 -200 60 0 2 28 12 61 21 80 22 132 71 127 117 -3 28 -7 32 -36 35 -60 6
-163 -54 -207 -121 -21 -33 -39 -33 -133 -3 -77 24 -77 30 4 42 54 7 126 38
145 60 6 7 8 21 5 30 -5 14 -17 16 -69 12 -94 -8 -188 -64 -173 -103 4 -12 1
-15 -12 -11 -9 2 -33 7 -52 11 -77 14 -77 17 2 40 83 24 117 43 155 83 29 31
29 57 1 76 -48 32 -153 -13 -257 -110 l-60 -55 -81 7 -81 7 58 23 c62 25 143
101 143 134 0 36 -25 43 -72 20 -53 -27 -158 -128 -158 -152 0 -17 -15 -18
-192 -18 l-193 0 51 44 c55 49 101 123 91 149 -10 26 -58 21 -95 -10z" />
		<path
			d="M5370 7060 c-52 -27 -130 -114 -130 -145 0 -32 14 -32 82 -1 29 13
76 34 104 46 46 19 58 31 81 82 2 3 -4 14 -13 22 -21 21 -81 20 -124 -4z" />
		<path
			d="M3733 7053 c-9 -3 -13 -28 -13 -73 0 -71 14 -98 45 -86 13 5 15 20
13 83 -3 79 -10 91 -45 76z" />
		<path
			d="M7027 7053 c-4 -3 -7 -39 -7 -79 0 -57 3 -73 16 -78 31 -12 44 13 44
84 0 53 -4 69 -16 74 -20 8 -29 8 -37 -1z" />
		<path
			d="M3733 6853 c-9 -3 -13 -28 -13 -73 0 -71 13 -96 44 -84 14 5 16 19
14 83 -3 77 -10 89 -45 74z" />
		<path
			d="M7027 6853 c-4 -3 -7 -39 -7 -79 0 -57 3 -73 16 -78 31 -12 44 13 44
84 0 53 -4 69 -16 74 -20 8 -29 8 -37 -1z" />
		<path
			d="M3732 6648 c-7 -7 -12 -38 -12 -74 0 -65 14 -90 44 -78 14 5 16 19
14 83 -2 58 -6 76 -18 79 -9 1 -21 -3 -28 -10z" />
		<path
			d="M7027 6653 c-4 -3 -7 -39 -7 -80 0 -78 13 -99 45 -73 22 18 21 146
-1 154 -20 8 -29 8 -37 -1z" />
		<path
			d="M3732 6448 c-7 -7 -12 -39 -12 -74 0 -65 15 -92 45 -80 22 8 22 151
-1 160 -20 8 -18 8 -32 -6z" />
		<path
			d="M7027 6453 c-4 -3 -7 -39 -7 -80 0 -78 13 -99 45 -73 19 15 21 130 3
148 -13 13 -31 16 -41 5z" />
		<path
			d="M4318 6340 c-99 -18 -218 -67 -218 -90 0 -5 17 -17 37 -27 92 -43
149 -145 141 -249 -3 -30 -1 -54 4 -54 4 0 28 15 53 34 57 44 138 74 238 88
105 15 195 2 397 -58 132 -38 165 -45 220 -41 36 2 73 7 82 11 14 7 17 -2 20
-66 2 -40 8 -81 12 -90 5 -11 4 -18 -2 -18 -5 0 -19 27 -31 61 -25 66 -35 75
-74 60 -31 -12 -33 -27 -10 -76 9 -19 15 -37 12 -39 -2 -3 -49 -2 -103 1 -81
5 -96 8 -82 18 13 10 14 14 4 22 -24 18 -297 106 -312 100 -8 -3 -23 -28 -32
-55 -13 -35 -25 -52 -46 -61 -16 -7 -60 -43 -98 -80 -79 -77 -141 -191 -164
-301 -12 -63 -14 -65 -47 -70 -33 -5 -34 -6 -37 -57 l-3 -53 90 0 91 0 0 30
c0 18 6 33 15 36 8 4 24 27 36 53 42 96 122 151 219 151 83 0 173 -47 202
-105 5 -11 -3 -5 -18 14 -36 44 -116 81 -177 81 -149 0 -260 -146 -223 -291
36 -138 189 -207 321 -145 28 13 63 38 78 55 48 57 66 159 41 224 -3 9 65 11
278 9 435 -4 890 10 896 27 12 35 86 100 129 115 96 33 183 16 253 -50 46 -43
46 -43 99 -35 29 5 59 15 67 23 40 40 22 146 -35 204 -60 61 -129 87 -534 199
-65 18 -122 37 -127 41 -4 5 -24 55 -45 112 -29 80 -41 102 -56 102 -10 0 -19
-5 -19 -10 0 -6 18 -59 40 -119 22 -60 40 -111 40 -115 0 -3 -16 -6 -35 -6
-26 0 -35 4 -35 16 0 13 -6 15 -27 11 -16 -4 -65 -11 -110 -18 -101 -15 -119
-6 -162 80 -31 61 -31 71 1 71 23 0 61 79 46 97 -5 6 -6 27 -3 46 6 29 3 37
-24 60 -83 70 -178 26 -169 -78 2 -25 2 -45 1 -45 -1 0 -10 15 -19 33 -9 17
-22 35 -28 39 -18 12 -64 9 -117 -8 -55 -18 -67 -41 -50 -87 10 -26 10 -27
-12 -16 -12 6 -79 52 -149 101 -141 98 -219 135 -358 167 -102 24 -296 35
-372 21z m1119 -312 c-3 -7 -5 -2 -5 12 0 14 2 19 5 13 2 -7 2 -19 0 -25z
m-17 -37 c-5 -11 -10 -32 -10 -47 0 -22 -3 -24 -14 -15 -8 7 -19 25 -25 41 -9
27 -8 29 22 33 18 2 33 5 35 5 1 1 -2 -7 -8 -17z m480 -201 c-8 -5 -55 -9
-105 -9 -63 1 -81 4 -60 9 46 12 183 12 165 0z m-1092 -455 c54 -63 -6 -168
-85 -149 -61 14 -94 73 -72 126 25 61 112 74 157 23z" />
		<path
			d="M3732 6248 c-7 -7 -12 -39 -12 -74 0 -65 14 -90 44 -78 23 9 24 149
0 158 -20 8 -18 8 -32 -6z" />
		<path d="M7033 6253 c-20 -7 -18 -152 2 -159 30 -12 45 15 45 80 0 72 -13 93
-47 79z" />
		<path
			d="M3732 6048 c-7 -7 -12 -40 -12 -79 0 -59 3 -68 20 -74 33 -11 40 3
40 80 0 57 -3 74 -16 79 -20 8 -18 8 -32 -6z" />
		<path d="M7033 6053 c-20 -7 -18 -152 2 -159 30 -12 45 15 45 80 0 72 -13 93
-47 79z" />
		<path
			d="M3732 5848 c-7 -7 -12 -39 -12 -74 0 -65 14 -90 44 -78 23 9 24 149
0 158 -20 8 -18 8 -32 -6z" />
		<path
			d="M7027 5854 c-4 -4 -7 -40 -7 -81 0 -56 4 -75 15 -79 33 -13 46 15 43
90 -3 63 -5 71 -23 74 -12 2 -24 0 -28 -4z" />
		<path
			d="M3732 5648 c-7 -7 -12 -40 -12 -79 0 -59 3 -68 20 -74 33 -11 40 3
40 80 0 57 -3 74 -16 79 -20 8 -18 8 -32 -6z" />
		<path
			d="M7027 5653 c-11 -10 -8 -151 3 -158 6 -3 19 -3 30 0 17 5 20 15 20
70 0 35 -3 70 -6 79 -6 16 -35 22 -47 9z" />
		<path
			d="M6266 5495 c-21 -7 -54 -28 -73 -47 -99 -95 -103 -232 -11 -327 44
-45 82 -62 148 -68 76 -7 140 17 184 69 34 40 66 120 66 168 0 40 -57 147 -93
174 -63 46 -145 58 -221 31z m145 -154 c32 -33 37 -67 15 -110 -43 -83 -166
-48 -166 48 0 41 5 51 40 74 37 26 77 21 111 -12z" />
		<path
			d="M3732 5448 c-7 -7 -12 -40 -12 -79 0 -59 3 -68 20 -74 33 -11 40 3
40 80 0 57 -3 74 -16 79 -20 8 -18 8 -32 -6z" />
		<path
			d="M7027 5453 c-11 -10 -8 -151 3 -158 6 -3 19 -3 30 0 17 5 20 15 20
70 0 35 -3 70 -6 79 -6 16 -35 22 -47 9z" />
		<path
			d="M3732 5248 c-7 -7 -12 -40 -12 -79 0 -59 3 -68 20 -74 33 -11 40 3
40 80 0 57 -3 74 -16 79 -20 8 -18 8 -32 -6z" />
		<path
			d="M7027 5253 c-11 -10 -8 -151 3 -158 6 -3 19 -3 30 0 17 6 20 15 20
74 0 65 -10 91 -35 91 -7 0 -15 -3 -18 -7z" />
		<path
			d="M3732 5048 c-7 -7 -12 -40 -12 -79 0 -59 3 -68 20 -74 33 -11 40 3
40 80 0 57 -3 74 -16 79 -20 8 -18 8 -32 -6z" />
		<path
			d="M7027 5053 c-11 -10 -8 -151 3 -158 6 -3 19 -3 30 0 17 6 20 15 20
74 0 65 -10 91 -35 91 -7 0 -15 -3 -18 -7z" />
		<path
			d="M3730 4845 c-18 -22 -8 -124 14 -141 10 -7 25 -10 33 -7 13 5 14 18
8 77 -8 81 -26 105 -55 71z" />
		<path
			d="M7033 4852 c-6 -4 -14 -39 -18 -78 -6 -59 -5 -72 8 -77 29 -11 50 17
55 76 5 69 -12 100 -45 79z" />
		<path
			d="M3805 4669 c-7 -22 14 -49 40 -49 6 0 16 -13 22 -30 13 -34 21 -36
48 -16 17 12 18 18 7 54 -15 48 -16 49 -69 58 -37 6 -42 4 -48 -17z" />
		<path
			d="M6920 4681 c-18 -5 -29 -19 -40 -50 -14 -40 -14 -44 3 -56 24 -17 44
-10 51 18 3 13 18 27 36 34 25 9 31 17 28 35 -3 25 -32 32 -78 19z" />
		<path d="M3953 4555 c-44 -34 63 -83 122 -57 32 15 34 50 3 56 -63 13 -108 13
-125 1z" />
		<path
			d="M6766 4561 c-60 -7 -83 -33 -51 -57 23 -18 107 -13 131 7 27 22 8 65
-24 57 -4 0 -29 -4 -56 -7z" />
		<path
			d="M4142 4548 c-29 -29 5 -58 69 -58 56 0 89 13 89 35 0 8 -9 19 -19 25
-27 14 -124 13 -139 -2z" />
		<path
			d="M4343 4554 c-20 -8 -15 -42 6 -54 24 -12 111 -13 129 -1 8 4 12 19
10 32 -3 22 -8 24 -68 26 -36 1 -71 -1 -77 -3z" />
		<path
			d="M4537 4553 c-16 -15 -6 -51 16 -57 35 -9 96 -7 118 4 23 13 25 46 3
54 -21 8 -129 8 -137 -1z" />
		<path
			d="M4737 4553 c-13 -12 -7 -51 9 -57 25 -10 104 -7 125 4 23 13 25 46 3
54 -21 8 -129 8 -137 -1z" />
		<path d="M4932 4548 c-30 -30 5 -58 73 -58 68 0 103 28 73 58 -16 16 -130 16
-146 0z" />
		<path d="M5132 4548 c-41 -41 41 -74 126 -52 26 7 31 48 6 58 -28 11 -120 6
-132 -6z" />
		<path
			d="M5333 4554 c-20 -8 -15 -42 6 -54 22 -11 83 -13 119 -4 18 5 22 13
20 33 -3 25 -6 26 -68 28 -36 1 -71 -1 -77 -3z" />
		<path
			d="M5533 4553 c-22 -8 -15 -50 10 -57 35 -9 96 -7 118 4 23 13 25 46 3
54 -18 7 -113 7 -131 -1z" />
		<path d="M5722 4548 c-30 -30 4 -58 72 -58 63 0 97 20 80 47 -14 22 -132 31
-152 11z" />
		<path
			d="M5922 4548 c-32 -32 1 -58 75 -58 59 0 76 10 71 41 -3 22 -8 24 -68
27 -42 2 -70 -2 -78 -10z" />
		<path
			d="M6123 4554 c-20 -8 -15 -42 6 -54 24 -12 111 -13 129 -1 8 4 12 19
10 32 -3 22 -8 24 -68 26 -36 1 -71 -1 -77 -3z" />
		<path
			d="M6323 4553 c-18 -7 -16 -50 3 -57 25 -10 104 -7 125 4 23 13 25 46 3
54 -18 7 -113 7 -131 -1z" />
		<path d="M6512 4548 c-32 -32 2 -58 77 -58 64 0 98 29 69 58 -16 16 -130 16
-146 0z" />
		<path
			d="M6710 3375 c0 -337 3 -515 10 -515 6 0 10 89 10 248 0 281 4 297 78
364 69 62 117 82 197 83 91 0 131 -22 165 -90 25 -49 25 -54 28 -327 3 -245 5
-278 19 -278 14 0 15 28 10 263 -4 207 -9 273 -22 316 -31 101 -108 148 -225
139 -72 -6 -120 -29 -191 -96 l-59 -54 0 231 c0 147 -4 231 -10 231 -7 0 -10
-178 -10 -515z" />
		<path
			d="M5488 3673 l-3 -128 -82 -3 c-46 -2 -83 -7 -83 -12 0 -5 37 -10 83
-12 l82 -3 5 -285 c4 -247 7 -289 23 -317 20 -38 54 -58 114 -68 56 -9 153 11
153 32 0 11 -5 13 -17 7 -37 -17 -150 -16 -186 1 -59 28 -62 47 -62 355 l0
275 138 3 c77 1 137 7 137 12 0 5 -60 11 -137 12 l-138 3 -3 128 c-1 70 -7
127 -12 127 -5 0 -11 -57 -12 -127z" />
		<path
			d="M3722 3559 c-24 -12 -60 -42 -80 -66 l-37 -44 -5 56 c-3 30 -9 56
-15 58 -6 1 -11 -122 -13 -350 -2 -305 0 -353 12 -353 13 0 16 41 18 274 l3
274 30 43 c17 24 50 57 74 74 36 25 52 30 104 30 77 0 120 -27 151 -94 19 -43
21 -66 24 -323 2 -153 8 -278 12 -278 5 0 10 121 12 268 l3 269 30 49 c43 69
111 109 186 109 49 0 63 -4 96 -31 66 -53 72 -87 73 -396 0 -179 3 -268 10
-268 8 0 10 93 8 288 -3 285 -3 288 -28 337 -32 62 -89 95 -164 95 -82 0 -150
-43 -207 -130 l-17 -25 -16 40 c-21 50 -52 84 -93 101 -48 21 -121 17 -171 -7z" />
		<path
			d="M4743 3565 c-69 -15 -106 -32 -98 -44 3 -5 33 0 67 11 88 29 257 31
311 4 54 -26 79 -81 81 -171 l1 -70 -125 -6 c-176 -8 -257 -34 -318 -103 -85
-97 -60 -265 47 -320 66 -35 176 -28 261 15 38 18 120 101 120 119 0 6 5 8 10
5 6 -3 10 -37 10 -76 0 -39 4 -69 10 -69 6 0 10 98 10 273 0 215 -3 284 -15
324 -17 59 -56 97 -113 113 -51 14 -184 11 -259 -5z m361 -397 c-2 -115 -21
-164 -89 -227 -55 -51 -132 -75 -221 -69 -103 6 -157 66 -157 172 0 99 58 169
166 200 73 21 99 23 207 22 l95 -1 -1 -97z" />
		<path
			d="M6175 3567 c-84 -33 -136 -82 -169 -160 -25 -60 -37 -186 -26 -272
25 -193 131 -289 321 -288 95 0 197 28 177 48 -2 2 -28 -3 -57 -12 -76 -22
-221 -14 -277 15 -49 25 -89 70 -118 132 -18 39 -21 64 -21 180 0 127 2 139
28 197 16 33 41 72 55 86 71 68 194 82 355 42 50 -13 28 11 -26 28 -62 20
-196 22 -242 4z" />
	</g>
</svg>
